<?xml version="1.0" encoding="utf-8"?>
<!-- Generator: Adobe Illustrator 21.0.0, SVG Export Plug-In . SVG Version: 6.00 Build 0)  -->
<svg version="1.1" id="Layer_1" xmlns="http://www.w3.org/2000/svg" xmlns:xlink="http://www.w3.org/1999/xlink" x="0px" y="0px"
	 viewBox="0 0 920.5 354.6" style="enable-background:new 0 0 920.5 354.6;" xml:space="preserve">
<style type="text/css">
	.st0{fill:#FFFFFF;}
</style>
<title>angle-hack</title>
<g id="OIk8vx_1_">
	<g>
		<g>
			<path class="st0" d="M225.7,166c0.6-2.4,1-4.9,1.8-7.2c4-12.4,17-18.6,28.1-13.3c2.5,1.2,4.7,3.2,7.3,5c0-1.7,0-3.4,0-5.4
				c4.4,0,8.4,0,12.7,0c0,16.2,0,32.3,0,48.7c-4.1,0-8.2,0-12.3,0c-0.1-1.9-0.2-3.6-0.3-5.6c-0.6,0.4-0.9,0.5-1.1,0.7
				c-9.2,11-30.6,8.1-34.9-10.9c-0.4-1.6-0.8-3.2-1.1-4.8C225.7,170.8,225.7,168.4,225.7,166z M263,169.6c0-2.3,0.2-4.6-0.1-6.9
				c-0.1-1.3-0.6-2.8-1.5-3.6c-3.8-3.6-8.3-5.2-13.5-3.6c-4.8,1.4-7.5,4.9-8.5,9.7c-0.4,2.1-0.6,4.2-0.4,6.3
				c0.6,8.1,6.5,13.1,14.4,12.3c6.3-0.6,9.6-4.1,9.6-10.3C263,172.2,263,170.9,263,169.6z"/>
			<path class="st0" d="M453.3,0c2.6,1.6,5.3,3.3,4.8,7c-0.2,1.2-0.5,2.7-1.3,3.5c-1.6,1.5-1.9,3.2-1.9,5.3c0.1,3.4,0.1,6.9,0,10.3
				c0,1.6,0.6,2.4,2.3,2.5c14.5,0.8,28,5.1,40.8,11.6c0.3,0.2,0.7,0.2,1.4,0.4c1.4-2.9,4-5,3.6-8.9c-0.3-3.1,2-5.5,5.1-5.9
				c3.5-0.5,6.3,1.4,7.2,4.7c0.7,2.9-0.8,6.7-3.8,7.1c-4.3,0.7-5.6,3.8-7,6.9c-3.1,6.5-4.2,13.4-4.5,20.5c-0.1,2.2-0.9,3.6-3.3,3.4
				c-1.9-0.2-2.8-1.5-2.6-3.3c0.7-5.4,1.3-10.8,2.3-16.1c0.3-1.7,0.3-2.6-1.4-3.5c-11.5-5.9-23.6-9.6-36.5-10.9
				c-3.3-0.3-3.5-0.1-3.5,3.2c0,5.3,0,10.6,0,15.9c0,2.2-0.5,4.1-3,4.1c-2.4,0-3-1.9-3-4.1c0.1-5.4-0.1-10.8,0.1-16.1
				c0.1-2.5-0.8-3.2-3.2-3c-13.1,0.7-25.3,4-36.9,10c-1.7,0.9-1.7,1.9-1.3,3.6c1,5.5,1.9,11.1,2.6,16.6c0.3,1.9-0.5,3.6-2.7,3.8
				c-2.5,0.2-3.2-1.4-3.2-3.5c-0.3-8.4-2-16.5-6.3-23.9c-0.9-1.6-1.9-2.7-4-2.9c-3.1-0.3-5.1-2.6-5.5-5.5c-0.3-2.6,0.8-4.8,3-6.1
				c2.3-1.4,4.9-1.4,7,0.4c1.1,0.9,2.3,2.6,2.2,3.9c-0.2,3.6,1.9,6,3.8,9c13.8-7.4,28.6-11.1,44.4-11.6c0-5.2,0-10.1,0-15
				c0-0.5-0.5-1.1-0.9-1.6c-3.8-4.4-2.9-8.5,2.4-11c0.2-0.1,0.4-0.3,0.7-0.5C451.8,0,452.6,0,453.3,0z"/>
			<path class="st0" d="M339.1,206.9c1.9-3,3.7-5.8,5.6-8.9c3.6,3.3,7.6,5.3,12.3,5.6c2.7,0.1,5.6,0.1,8.2-0.5
				c5.2-1.1,8.1-4.8,8.7-10.2c0.2-2,0-4,0-6.4c-0.6,0.4-1,0.6-1.3,0.9c-5.9,6.1-12.9,7.6-20.9,5.2c-8-2.4-12.3-8.3-14-16.1
				c-1.4-6.3-1.2-12.7,1-18.9c5.3-14.6,22.7-18.6,33.9-7.8c0.3,0.3,0.7,0.6,1.3,1.2c0.1-2.1,0.2-3.8,0.4-5.8c4.1,0,8.1,0,12.2,0
				c0.1,0.6,0.3,1.1,0.3,1.7c0,15,0.2,30-0.1,45.1c-0.3,12.4-6.4,19.2-18.7,21.5c-8.8,1.6-17.4,1.2-25.2-3.8
				C341.5,208.8,340.4,207.8,339.1,206.9z M374.1,168.6c0-1.6-0.2-3.2,0-4.7c0.4-3-1-4.9-3.4-6.4c-4.7-2.9-9.5-3.6-14.5-0.9
				c-4.8,2.6-6.2,7.2-6.2,12.2c0,7.9,4.4,13,11.7,13.6c4.1,0.3,7.6-1.3,10.7-3.8c2.5-2,1.5-4.8,1.7-7.2
				C374.2,170.4,374.1,169.5,374.1,168.6z"/>
			<path class="st0" d="M471.5,194c0-22.8,0-45.2,0-67.7c4.1,0,8.1,0,12.5,0c0,8.1,0,16.2,0,25c1.3-1,1.9-1.6,2.6-2.2
				c6.3-5.1,13.4-6.4,21.2-4.5c5.5,1.4,9.2,5.8,9.4,11.7c0.3,10.4,0.2,20.8,0.3,31.1c0,6.7,0,6.7-6.8,6.7c-5.9,0-5.9,0-5.9-5.9
				c0-7.4,0-14.8,0-22.2c0-10-7.3-14.1-16.1-9.1c-3.1,1.7-4.9,3.9-4.8,7.9c0.3,8.8,0.1,17.6,0.1,26.4c0,2.1-0.5,3-2.8,2.9
				C478.2,193.8,474.9,194,471.5,194z"/>
			<path class="st0" d="M560.7,151.2c0-2.5,0-4.2,0-6.1c4.3,0,8.3,0,12.6,0c0,16.1,0,32.3,0,48.7c-4.1,0-8.1,0-12.4,0
				c-0.1-1.8-0.2-3.5-0.3-5.6c-0.8,0.7-1.4,1.1-1.9,1.5c-9.4,8.9-24.6,7.1-31.1-4.1c-5.9-10.4-6-21.4-0.1-31.8
				c6.5-11.7,22-13.5,31.6-4.1C559.4,150,559.7,150.3,560.7,151.2z M560.7,169.6c0-2-0.2-4.1,0-6.1c0.2-2.4-0.9-4-2.7-5.4
				c-8.1-6.4-18.6-2.9-21,7.2c-0.5,2.2-0.5,4.6-0.3,6.9c0.7,7.5,6.3,12.2,13.8,11.8c6.6-0.4,10.1-4.1,10.1-10.7
				C560.7,172,560.7,170.8,560.7,169.6z"/>
			<path class="st0" d="M676.8,144.9c-6.8,7.7-13,14.9-19.4,22.2c6.5,8.8,13,17.5,19.9,26.8c-5.5,0-10.4,0.1-15.2-0.1
				c-0.7,0-1.4-1.1-1.9-1.8c-3.9-5.5-7.7-11.1-11.8-17c-3,3.4-6.7,5.6-6.3,11.1c0.5,7.9,0.1,7.9-7.9,7.9c-5.2,0-4.5,0.5-4.5-4.7
				c0-19.8,0-39.5,0-59.3c0-1.2,0-2.4,0-3.8c4.1,0,8.1,0,12.5,0c0,13.3,0,26.6,0,40c0.2,0.1,0.5,0.1,0.7,0.2
				c4.3-5.1,9-9.9,12.9-15.3c3.5-5,7.6-7.3,13.7-6.3C671.6,145.2,673.8,144.9,676.8,144.9z"/>
			<path class="st0" d="M433.6,180.4c1.8,2.7,3.6,5.3,5.5,8.1c-3.6,3.3-7.9,5-12.5,6c-6.4,1.4-12.7,1.2-18.8-1.3
				c-11.3-4.6-16.9-16.1-14.5-29.3c2.1-11.4,12.1-19.9,23.7-20.1c14.9-0.3,25.3,9.8,25.7,24.7c0,1.6,0,3.1,0,5.2
				c-6.2,0-12.3,0-18.3,0s-12,0-18.1,0C407.4,185,420.7,188.3,433.6,180.4z M430.4,164.7c-0.5-6.8-5.4-10.8-12.6-10.7
				c-6.7,0.2-11.4,4.4-11.6,10.7C414.2,164.7,422.2,164.7,430.4,164.7z"/>
			<path class="st0" d="M318.2,194c0-4.2,0-8,0-11.8c0-6.1,0.1-12.2,0-18.4c-0.1-6.1-3.7-9.5-9.8-8.8c-2.1,0.2-4.2,0.9-6,1.8
				c-3.3,1.6-5.1,4-4.9,8.1c0.4,8.5,0.1,17.1,0.1,25.6c0,1,0,2,0,3.2c-4.3,0-8.3,0-12.5,0c0-16.3,0-32.4,0-48.6c4.1,0,8.1,0,12.4,0
				c0,1.8,0,3.5,0,6.1c1.3-1,2-1.6,2.7-2.2c6.1-4.9,13.1-6.3,20.7-4.6c5.6,1.3,9.8,5.6,9.9,11.3c0.4,12.1,0.3,24.3,0.2,36.4
				c0,0.6-1.1,1.7-1.8,1.7C325.7,194,322.2,194,318.2,194z"/>
			<path class="st0" d="M452,96.9c-12.2-0.6-24.3-1.3-35.9-5.3c-3.2-1.1-6.4-2.7-9.1-4.7c-4.8-3.5-4.6-8.7,0-12.4
				c4.8-3.9,10.7-5.6,16.6-6.7c20.8-3.9,41.6-4.1,62.2,1.4c3.6,1,7.2,2.6,10.3,4.6c6.1,3.9,6,9.8,0,14c-5.6,3.9-12.1,5.6-18.7,6.5
				C469,95.5,460.4,96.1,452,96.9z M452,91c8.5-1,17.1-1.5,25.6-3c5.1-0.9,10.1-3,14.9-5c2.5-1.1,2.5-3,0-4.3
				c-2.8-1.5-5.7-2.8-8.7-3.6c-19.2-5-38.7-5.1-58.1-1.3c-4.8,1-9.5,2.9-14.1,4.9c-2.7,1.2-2.6,2.9,0,4.4c2,1.2,4.1,2.1,6.3,2.8
				C429,89.4,440.4,90.3,452,91z"/>
			<path class="st0" d="M624.7,152.5c-2.6,2.4-5.2,4.9-7.8,7.4c-8.1-6.3-15.6-6.5-20.8-0.7c-5,5.6-4.8,15.6,0.4,20.9
				c5.3,5.5,12.9,5,20.3-1.2c2.6,2.5,5.2,4.9,7.9,7.4c-4.5,7.5-16.3,10.9-27,8c-11-3-17.9-12.4-18.1-24.4
				c-0.2-11.9,6.6-21.6,17.5-24.9C607.8,141.6,619.6,144.8,624.7,152.5z"/>
			<path class="st0" d="M448.6,126.2c4.1,0,8.2,0,12.4,0c0,22.5,0,44.9,0,67.6c-4.1,0-8.1,0-12.4,0
				C448.6,171.2,448.6,148.8,448.6,126.2z"/>
		</g>
	</g>
</g>
<g>
	<path class="st0" d="M51.4,327.1c-2,0-3.8,0-5.7,0L13,256.5l-2.7-8.4H9.9l1,8.9v70.1H5.4v-87.5c2,0,3.9,0,5.9,0l32.6,70.6l2.7,8.2
		H47l-1-8.9v-70h5.4V327.1z"/>
	<path class="st0" d="M68.4,310.1c0,2,0.3,3.6,1.3,5.2c1.8,2.9,5.2,4.9,9,5.6c2.9,0.6,5.6,0.6,8.6,0c4-0.6,7.7-2.5,10.1-6.4l4.7,3.2
		c-3.1,5.9-8.5,8.4-14,9.4c-3.3,0.6-6.2,0.8-9.4,0.1c-5.5-1-10.5-3.9-13.3-8.2c-1.7-2.9-2.4-6-2.4-9.5v-27.7
		c0-8.2,5.4-13.4,12.5-15.6c5.1-1.6,10.6-1.6,15.7,0c14.1,4.9,16.5,26.5,3.4,34.5c-7.6,4.8-18.8,3-26,3V310.1z M68.4,298.3
		c4.7-0.2,16.2,1.1,23.4-2.9c9.2-5,7.5-20-2.2-23.1c-4.1-1.2-8.8-1.2-12.9,0c-4.7,1.5-8.4,4.7-8.4,9.6V298.3z"/>
	<path class="st0" d="M113.1,354c0-29.4,0-58.6,0-88h5v6.9c4.3-7.1,15.2-9.6,23.2-7c6.9,2.1,12.4,7.4,12.4,15.6v28.4
		c0,18.6-26.2,23.1-35.1,11V354H113.1z M118.5,310.9c0,13.7,29.6,15,29.6-0.8v-28.6h0.1c0-4.9-3.7-8.1-8.5-9.6
		c-2-0.6-4.2-0.9-6.4-0.9c-6.8,0-14.9,3.8-14.9,13.2V310.9z"/>
	<path class="st0" d="M196.3,282.4c0-1.9-0.3-3.6-1.3-5.1c-1.8-3-5.2-4.9-9.1-5.7c-2.9-0.6-5.5-0.5-8.6,0c-3.9,0.8-7.7,2.6-10,6.5
		l-4.7-3.4c6.4-11.9,29.6-12.5,36.8-1.1c1.7,2.9,2.3,6,2.3,9.4v32.9c0,4.6,2.6,5.9,5.3,5.9v5.6c-4.6,0.4-8.1-1.1-9.8-5
		c-4.7,5.2-10.5,6.5-15.8,6.5c-2.6,0-5.3-0.5-7.9-1.2c-14.8-4.6-16.5-25.1-5.4-33.5c6.7-5.2,17.5-6,28.2-3.6V282.4z M196.3,296.1
		c-8-2.4-18.5-2.6-24.7,2.4c-7.6,6.1-6.9,19.6,3.5,23c2,0.6,4.1,0.9,6.4,0.9c5.6,0,14.9-2.5,14.9-10.5V296.1z"/>
	<path class="st0" d="M228.3,327.6c-8.9,0.6-13.3-2.6-13.3-13.7v-74.2h5.4V314c0,6.5,2.3,8,7.9,8V327.6z"/>
	<path class="st0" d="M267.5,286.6c0,12.9,0,27.6,0,40.5h-5.3v-87.6h5.3v40.9h33.6v-40.9h5.4v87.6h-5.4v-40.5H267.5z"/>
	<path class="st0" d="M349.9,282.4c0-1.9-0.3-3.6-1.3-5.1c-1.8-3-5.2-4.9-9.1-5.7c-2.9-0.6-5.5-0.5-8.6,0c-3.9,0.8-7.7,2.6-10,6.5
		l-4.7-3.4c6.4-11.9,29.6-12.5,36.8-1.1c1.7,2.9,2.3,6,2.3,9.4v32.9c0,4.6,2.6,5.9,5.3,5.9v5.6c-4.6,0.4-8.1-1.1-9.8-5
		c-4.7,5.2-10.5,6.5-15.8,6.5c-2.6,0-5.3-0.5-7.9-1.2c-14.8-4.6-16.5-25.1-5.4-33.5c6.7-5.2,17.5-6,28.2-3.6V282.4z M349.9,296.1
		c-8-2.4-18.5-2.6-24.7,2.4c-7.6,6.1-6.9,19.6,3.5,23c2,0.6,4.1,0.9,6.4,0.9c5.6,0,14.9-2.5,14.9-10.5V296.1z"/>
	<path class="st0" d="M408.8,311c0,8.2-5.4,13.5-12.4,15.6v0.1c-5.1,1.5-10.7,1.5-15.8,0c-6.7-2.1-12.4-7.4-12.4-16v-28.6
		c0-8.5,5.7-13.6,12.4-15.7c2.5-0.8,5.2-1.2,7.9-1.2c2.6,0,5.3,0.5,7.9,1.2c6.9,2.2,12.4,7.4,12.4,15.7h-5.4c0-5-3.7-8.2-8.5-9.7
		c-2-0.6-4.2-1-6.4-1c-2.3,0-4.4,0.4-6.5,1c-4,1.2-8.4,4.2-8.4,9.9v28.5c0,5.6,4.2,8.6,8.4,10c4,1.2,8.9,1.2,12.9,0h0.1
		c4.7-1.5,8.4-4.8,8.4-9.7H408.8z"/>
	<path class="st0" d="M418.9,327.1c0-29.4,0-58.7,0-88h5.4v57l28.5-30.4h7.3v0.6l-24.6,26c11.1-2.6,23.6,3,24,15.1
		c0,0.5,0,0.4,0,0.5v19.1h-5.4V308c0-0.4,0-0.1,0-0.2c-0.3-12.6-22.6-13.6-28.3-4.9c-1.1,1.8-1.4,3.5-1.4,5.6v18.6H418.9z"/>
	<path class="st0" d="M501.3,282.4c0-1.9-0.3-3.6-1.3-5.1c-1.8-3-5.2-4.9-9.1-5.7c-2.9-0.6-5.5-0.5-8.6,0c-3.9,0.8-7.7,2.6-10,6.5
		l-4.7-3.4c6.4-11.9,29.6-12.5,36.8-1.1c1.7,2.9,2.3,6,2.3,9.4v32.9c0,4.6,2.6,5.9,5.3,5.9v5.6c-4.6,0.4-8.1-1.1-9.8-5
		c-4.7,5.2-10.5,6.5-15.8,6.5c-2.6,0-5.3-0.5-7.9-1.2c-14.8-4.6-16.5-25.1-5.4-33.5c6.7-5.2,17.5-6,28.2-3.6V282.4z M501.3,296.1
		c-8-2.4-18.5-2.6-24.7,2.4c-7.6,6.1-6.9,19.6,3.5,23c2,0.6,4.1,0.9,6.4,0.9c5.6,0,14.9-2.5,14.9-10.5V296.1z"/>
	<path class="st0" d="M530.4,239.4v26.4h12.9v5.6c-4.3,0-8.6,0-12.9,0.1v38.4c0,10.5,6.7,11.5,13.9,11.7v5.7
		c-9.9,0.6-19.3-3.5-19.3-17.4v-38.6h-9.3v-5.6h9.3v-26.4H530.4z"/>
	<path class="st0" d="M551.3,327.1v-88h5.5v31.5c7.3-7.9,20.4-7.4,28.1-2c4.1,2.8,6.8,7,6.9,12.9c0,0.4,0,0.4,0,0.4v45.2h-5.4v-45.2
		c0-0.2,0,0,0-0.2c-0.1-3.4-1.7-5.9-4.3-7.6c-2.8-2-6.6-2.9-10.5-3h-0.3c-5.3,0.1-10.5,2-13,5.7c-1.1,1.8-1.4,3.6-1.4,5.6v44.7
		H551.3z"/>
	<path class="st0" d="M642.7,310.9c0,7.7-4.7,12.7-11,15.2c-4.7,1.8-9.7,2-14.5,1.1c-8.1-1.6-15.1-7-15.1-16.4v-29
		c0-8.2,5.4-13.5,12.4-15.6c2.6-0.9,5.2-1.2,7.9-1.2c2.7,0,5.4,0.4,7.9,1.2c6.9,2.1,12.4,7.4,12.4,15.6V310.9z M637.3,310.9v-29
		c0-4.9-3.7-8.1-8.4-9.6c-2.1-0.6-4.2-1-6.5-1c-2.3,0-4.4,0.4-6.5,1c-4.7,1.5-8.4,4.6-8.4,9.6v29c0,5.6,4.9,9.2,10.5,10.4
		c4,0.8,8.1,0.5,11.9-1C634.1,318.6,637.3,315.4,637.3,310.9z"/>
	<path class="st0" d="M688.3,327.1v-44.7c0-7.4-7.4-11.4-14.8-11.4s-14.9,3.9-14.9,12.4v43.7h-5.5v-61.5h5.5v5.7
		c4-5,9.7-6.5,14.8-6.5c10.1-0.1,20.4,5.4,20.4,17.6v44.6H688.3z"/>
	<path class="st0" d="M734.9,316.9c0,3.9,1.2,4.2,4.2,4.2h35.2v6H739c-6.5,0-9.5-1.9-9.5-10.2V311c0-20.7,20.5-26,32.6-34.2
		c4.8-3.2,7.4-8.6,7.3-15.4c0-5.1-2.1-9.2-5.1-12.1c-6.1-5.8-14.2-5.8-21.3-3.4c-4.1,1.2-7.9,5.5-8,10.9h-5.4
		c0-7.7,4.7-13.4,11-15.9h0.1c8.4-3.1,20.2-3,27.1,3.5c4.1,4.1,6.9,9.7,7,16.9c0,9.4-2.9,15.9-10,20.5c-12.1,8-29.6,11.6-29.9,29.4
		V316.9z"/>
	<path class="st0" d="M783.7,255.3c0-22.4,45.8-22.4,45.8,0V311c0,22.7-45.8,22.7-45.8,0V255.3z M790.6,250.4
		c-0.9,1.4-1.4,3-1.4,4.9v55.2c0,1.5,0.2,2.6,0.3,3.1c2.5,8.4,19.2,10.2,28.4,5.9L790.6,250.4z M824,255.3c0-10.9-19-13.7-29-8.6
		l27.4,69.4c1.2-1.7,1.4-3.2,1.4-5.5L824,255.3z"/>
	<path class="st0" d="M854.9,239.7v87.5h-5.5v-81h-11.5v-6.5H854.9z"/>
	<path class="st0" d="M913.8,269c0,6.6-4.1,11.7-10.1,13.9c6,1.2,11.5,6,11.5,13.5c0,4.4,0,10.4,0,14.7c0,11.4-12.9,17-24.4,17
		s-24.5-5.6-24.5-17c0-4.4,0-10.4,0-14.7c0-7.5,5.6-12.2,11.5-13.5c-6-2.1-10-7.2-10-13.9c0-4.5,0-9.4,0-13.7c0-11.4,11.5-17,23-17
		s23,5.6,23,17C913.8,259.7,913.8,264.5,913.8,269z M871.8,296.4c0,4.4,0,10.4,0,14.7c0,7.1,10.2,10.7,19,10.7c8.7,0,19-3.6,19-10.7
		c0-4.4,0-10.4,0-14.7c0-7.1-10.3-11.2-19-11.2C882,285.1,871.8,289.3,871.8,296.4z M873.2,255.3c0,4.4,0,9.2,0,13.7
		c0,7,8.8,11.1,17.6,11.1c8.7,0,17.5-4.1,17.5-11.1c0-4.5,0-9.4,0-13.7c0-7.1-8.8-10.7-17.5-10.7C882,244.5,873.2,248.2,873.2,255.3
		z"/>
</g>
</svg>
